mtllib car_pickup_blue.mtl
o car_pickup_blue
v 0.950 1.050 -2.600
v 0.950 1.050 2.600
v -0.950 1.050 2.600
v -0.950 1.050 -2.600
v 0.950 0.380 2.600
v -0.950 0.380 2.600
v -0.950 1.050 2.600
v 0.950 1.050 2.600
v -0.950 0.380 -2.600
v 0.950 0.380 -2.600
v 0.950 1.050 -2.600
v -0.950 1.050 -2.600
v -0.950 0.380 2.600
v -0.950 0.380 -2.600
v -0.950 1.050 -2.600
v -0.950 1.050 2.600
v 0.950 0.380 -2.600
v 0.950 0.380 2.600
v 0.950 1.050 2.600
v 0.950 1.050 -2.600
v 0.840 1.780 0.250
v 0.840 1.780 1.300
v -0.840 1.780 1.300
v -0.840 1.780 0.250
v 0.880 1.050 1.750
v -0.880 1.050 1.750
v -0.840 1.780 1.300
v 0.840 1.780 1.300
v -0.880 1.050 0.100
v 0.880 1.050 0.100
v 0.840 1.780 0.250
v -0.840 1.780 0.250
v -0.880 1.050 1.750
v -0.880 1.050 0.100
v -0.840 1.780 0.250
v -0.840 1.780 1.300
v 0.880 1.050 0.100
v 0.880 1.050 1.750
v 0.840 1.780 1.300
v 0.840 1.780 0.250
v 0.950 1.380 -2.550
v 0.950 1.380 0.050
v 0.740 1.380 0.050
v 0.740 1.380 -2.550
v 0.950 1.050 0.050
v 0.740 1.050 0.050
v 0.740 1.380 0.050
v 0.950 1.380 0.050
v 0.740 1.050 -2.550
v 0.950 1.050 -2.550
v 0.950 1.380 -2.550
v 0.740 1.380 -2.550
v 0.740 1.050 0.050
v 0.740 1.050 -2.550
v 0.740 1.380 -2.550
v 0.740 1.380 0.050
v 0.950 1.050 -2.550
v 0.950 1.050 0.050
v 0.950 1.380 0.050
v 0.950 1.380 -2.550
v -0.740 1.380 -2.550
v -0.740 1.380 0.050
v -0.950 1.380 0.050
v -0.950 1.380 -2.550
v -0.740 1.050 0.050
v -0.950 1.050 0.050
v -0.950 1.380 0.050
v -0.740 1.380 0.050
v -0.950 1.050 -2.550
v -0.740 1.050 -2.550
v -0.740 1.380 -2.550
v -0.950 1.380 -2.550
v -0.950 1.050 0.050
v -0.950 1.050 -2.550
v -0.950 1.380 -2.550
v -0.950 1.380 0.050
v -0.740 1.050 -2.550
v -0.740 1.050 0.050
v -0.740 1.380 0.050
v -0.740 1.380 -2.550
v 0.950 1.380 -2.600
v 0.950 1.380 -2.400
v -0.950 1.380 -2.400
v -0.950 1.380 -2.600
v 0.950 1.050 -2.400
v -0.950 1.050 -2.400
v -0.950 1.380 -2.400
v 0.950 1.380 -2.400
v -0.950 1.050 -2.600
v 0.950 1.050 -2.600
v 0.950 1.380 -2.600
v -0.950 1.380 -2.600
v -0.950 1.050 -2.400
v -0.950 1.050 -2.600
v -0.950 1.380 -2.600
v -0.950 1.380 -2.400
v 0.950 1.050 -2.600
v 0.950 1.050 -2.400
v 0.950 1.380 -2.400
v 0.950 1.380 -2.600
v -0.690 0.400 1.310
v -0.690 0.400 1.990
v -0.970 0.400 1.990
v -0.970 0.400 1.310
v -0.690 0.000 1.990
v -0.970 0.000 1.990
v -0.970 0.400 1.990
v -0.690 0.400 1.990
v -0.970 0.000 1.310
v -0.690 0.000 1.310
v -0.690 0.400 1.310
v -0.970 0.400 1.310
v -0.970 0.000 1.990
v -0.970 0.000 1.310
v -0.970 0.400 1.310
v -0.970 0.400 1.990
v -0.690 0.000 1.310
v -0.690 0.000 1.990
v -0.690 0.400 1.990
v -0.690 0.400 1.310
v 0.970 0.400 1.310
v 0.970 0.400 1.990
v 0.690 0.400 1.990
v 0.690 0.400 1.310
v 0.970 0.000 1.990
v 0.690 0.000 1.990
v 0.690 0.400 1.990
v 0.970 0.400 1.990
v 0.690 0.000 1.310
v 0.970 0.000 1.310
v 0.970 0.400 1.310
v 0.690 0.400 1.310
v 0.690 0.000 1.990
v 0.690 0.000 1.310
v 0.690 0.400 1.310
v 0.690 0.400 1.990
v 0.970 0.000 1.310
v 0.970 0.000 1.990
v 0.970 0.400 1.990
v 0.970 0.400 1.310
v -0.690 0.400 -1.990
v -0.690 0.400 -1.310
v -0.970 0.400 -1.310
v -0.970 0.400 -1.990
v -0.690 0.000 -1.310
v -0.970 0.000 -1.310
v -0.970 0.400 -1.310
v -0.690 0.400 -1.310
v -0.970 0.000 -1.990
v -0.690 0.000 -1.990
v -0.690 0.400 -1.990
v -0.970 0.400 -1.990
v -0.970 0.000 -1.310
v -0.970 0.000 -1.990
v -0.970 0.400 -1.990
v -0.970 0.400 -1.310
v -0.690 0.000 -1.990
v -0.690 0.000 -1.310
v -0.690 0.400 -1.310
v -0.690 0.400 -1.990
v 0.970 0.400 -1.990
v 0.970 0.400 -1.310
v 0.690 0.400 -1.310
v 0.690 0.400 -1.990
v 0.970 0.000 -1.310
v 0.690 0.000 -1.310
v 0.690 0.400 -1.310
v 0.970 0.400 -1.310
v 0.690 0.000 -1.990
v 0.970 0.000 -1.990
v 0.970 0.400 -1.990
v 0.690 0.400 -1.990
v 0.690 0.000 -1.310
v 0.690 0.000 -1.990
v 0.690 0.400 -1.990
v 0.690 0.400 -1.310
v 0.970 0.000 -1.990
v 0.970 0.000 -1.310
v 0.970 0.400 -1.310
v 0.970 0.400 -1.990
usemtl body
f 4 3 2 1
f 8 7 6 5
f 12 11 10 9
f 16 15 14 13
f 20 19 18 17
f 24 23 22 21
f 44 43 42 41
f 48 47 46 45
f 52 51 50 49
f 56 55 54 53
f 60 59 58 57
f 64 63 62 61
f 68 67 66 65
f 72 71 70 69
f 76 75 74 73
f 80 79 78 77
f 84 83 82 81
f 88 87 86 85
f 92 91 90 89
f 96 95 94 93
f 100 99 98 97
usemtl glass
f 28 27 26 25
f 32 31 30 29
f 36 35 34 33
f 40 39 38 37
usemtl tire
f 104 103 102 101
f 108 107 106 105
f 112 111 110 109
f 116 115 114 113
f 120 119 118 117
f 124 123 122 121
f 128 127 126 125
f 132 131 130 129
f 136 135 134 133
f 140 139 138 137
f 144 143 142 141
f 148 147 146 145
f 152 151 150 149
f 156 155 154 153
f 160 159 158 157
f 164 163 162 161
f 168 167 166 165
f 172 171 170 169
f 176 175 174 173
f 180 179 178 177
