mtllib car_van_yellow.mtl
o car_van_yellow
v 0.950 1.050 -2.500
v 0.950 1.050 2.500
v -0.950 1.050 2.500
v -0.950 1.050 -2.500
v 0.950 0.320 2.500
v -0.950 0.320 2.500
v -0.950 1.050 2.500
v 0.950 1.050 2.500
v -0.950 0.320 -2.500
v 0.950 0.320 -2.500
v 0.950 1.050 -2.500
v -0.950 1.050 -2.500
v -0.950 0.320 2.500
v -0.950 0.320 -2.500
v -0.950 1.050 -2.500
v -0.950 1.050 2.500
v 0.950 0.320 -2.500
v 0.950 0.320 2.500
v 0.950 1.050 2.500
v 0.950 1.050 -2.500
v 0.860 2.150 -2.380
v 0.860 2.150 1.150
v -0.860 2.150 1.150
v -0.860 2.150 -2.380
v 0.900 1.050 1.650
v -0.900 1.050 1.650
v -0.860 2.150 1.150
v 0.860 2.150 1.150
v -0.900 1.050 -2.420
v 0.900 1.050 -2.420
v 0.860 2.150 -2.380
v -0.860 2.150 -2.380
v -0.900 1.050 1.650
v -0.900 1.050 -2.420
v -0.860 2.150 -2.380
v -0.860 2.150 1.150
v 0.900 1.050 -2.420
v 0.900 1.050 1.650
v 0.860 2.150 1.150
v 0.860 2.150 -2.380
v -0.690 0.380 1.290
v -0.690 0.380 1.910
v -0.970 0.380 1.910
v -0.970 0.380 1.290
v -0.690 0.000 1.910
v -0.970 0.000 1.910
v -0.970 0.380 1.910
v -0.690 0.380 1.910
v -0.970 0.000 1.290
v -0.690 0.000 1.290
v -0.690 0.380 1.290
v -0.970 0.380 1.290
v -0.970 0.000 1.910
v -0.970 0.000 1.290
v -0.970 0.380 1.290
v -0.970 0.380 1.910
v -0.690 0.000 1.290
v -0.690 0.000 1.910
v -0.690 0.380 1.910
v -0.690 0.380 1.290
v 0.970 0.380 1.290
v 0.970 0.380 1.910
v 0.690 0.380 1.910
v 0.690 0.380 1.290
v 0.970 0.000 1.910
v 0.690 0.000 1.910
v 0.690 0.380 1.910
v 0.970 0.380 1.910
v 0.690 0.000 1.290
v 0.970 0.000 1.290
v 0.970 0.380 1.290
v 0.690 0.380 1.290
v 0.690 0.000 1.910
v 0.690 0.000 1.290
v 0.690 0.380 1.290
v 0.690 0.380 1.910
v 0.970 0.000 1.290
v 0.970 0.000 1.910
v 0.970 0.380 1.910
v 0.970 0.380 1.290
v -0.690 0.380 -1.910
v -0.690 0.380 -1.290
v -0.970 0.380 -1.290
v -0.970 0.380 -1.910
v -0.690 0.000 -1.290
v -0.970 0.000 -1.290
v -0.970 0.380 -1.290
v -0.690 0.380 -1.290
v -0.970 0.000 -1.910
v -0.690 0.000 -1.910
v -0.690 0.380 -1.910
v -0.970 0.380 -1.910
v -0.970 0.000 -1.290
v -0.970 0.000 -1.910
v -0.970 0.380 -1.910
v -0.970 0.380 -1.290
v -0.690 0.000 -1.910
v -0.690 0.000 -1.290
v -0.690 0.380 -1.290
v -0.690 0.380 -1.910
v 0.970 0.380 -1.910
v 0.970 0.380 -1.290
v 0.690 0.380 -1.290
v 0.690 0.380 -1.910
v 0.970 0.000 -1.290
v 0.690 0.000 -1.290
v 0.690 0.380 -1.290
v 0.970 0.380 -1.290
v 0.690 0.000 -1.910
v 0.970 0.000 -1.910
v 0.970 0.380 -1.910
v 0.690 0.380 -1.910
v 0.690 0.000 -1.290
v 0.690 0.000 -1.910
v 0.690 0.380 -1.910
v 0.690 0.380 -1.290
v 0.970 0.000 -1.910
v 0.970 0.000 -1.290
v 0.970 0.380 -1.290
v 0.970 0.380 -1.910
usemtl body
f 4 3 2 1
f 8 7 6 5
f 12 11 10 9
f 16 15 14 13
f 20 19 18 17
f 24 23 22 21
f 32 31 30 29
f 36 35 34 33
f 40 39 38 37
usemtl glass
f 28 27 26 25
usemtl tire
f 44 43 42 41
f 48 47 46 45
f 52 51 50 49
f 56 55 54 53
f 60 59 58 57
f 64 63 62 61
f 68 67 66 65
f 72 71 70 69
f 76 75 74 73
f 80 79 78 77
f 84 83 82 81
f 88 87 86 85
f 92 91 90 89
f 96 95 94 93
f 100 99 98 97
f 104 103 102 101
f 108 107 106 105
f 112 111 110 109
f 116 115 114 113
f 120 119 118 117
