mtllib car_hatchback_blue.mtl
o car_hatchback_blue
v 0.880 0.920 -1.950
v 0.880 0.920 1.950
v -0.880 0.920 1.950
v -0.880 0.920 -1.950
v 0.880 0.320 1.950
v -0.880 0.320 1.950
v -0.880 0.920 1.950
v 0.880 0.920 1.950
v -0.880 0.320 -1.950
v 0.880 0.320 -1.950
v 0.880 0.920 -1.950
v -0.880 0.920 -1.950
v -0.880 0.320 1.950
v -0.880 0.320 -1.950
v -0.880 0.920 -1.950
v -0.880 0.920 1.950
v 0.880 0.320 -1.950
v 0.880 0.320 1.950
v 0.880 0.920 1.950
v 0.880 0.920 -1.950
v 0.760 1.400 -1.500
v 0.760 1.400 0.300
v -0.760 1.400 0.300
v -0.760 1.400 -1.500
v 0.800 0.920 0.850
v -0.800 0.920 0.850
v -0.760 1.400 0.300
v 0.760 1.400 0.300
v -0.800 0.920 -1.700
v 0.800 0.920 -1.700
v 0.760 1.400 -1.500
v -0.760 1.400 -1.500
v -0.800 0.920 0.850
v -0.800 0.920 -1.700
v -0.760 1.400 -1.500
v -0.760 1.400 0.300
v 0.800 0.920 -1.700
v 0.800 0.920 0.850
v 0.760 1.400 0.300
v 0.760 1.400 -1.500
v -0.620 0.340 0.890
v -0.620 0.340 1.510
v -0.900 0.340 1.510
v -0.900 0.340 0.890
v -0.620 0.000 1.510
v -0.900 0.000 1.510
v -0.900 0.340 1.510
v -0.620 0.340 1.510
v -0.900 0.000 0.890
v -0.620 0.000 0.890
v -0.620 0.340 0.890
v -0.900 0.340 0.890
v -0.900 0.000 1.510
v -0.900 0.000 0.890
v -0.900 0.340 0.890
v -0.900 0.340 1.510
v -0.620 0.000 0.890
v -0.620 0.000 1.510
v -0.620 0.340 1.510
v -0.620 0.340 0.890
v 0.900 0.340 0.890
v 0.900 0.340 1.510
v 0.620 0.340 1.510
v 0.620 0.340 0.890
v 0.900 0.000 1.510
v 0.620 0.000 1.510
v 0.620 0.340 1.510
v 0.900 0.340 1.510
v 0.620 0.000 0.890
v 0.900 0.000 0.890
v 0.900 0.340 0.890
v 0.620 0.340 0.890
v 0.620 0.000 1.510
v 0.620 0.000 0.890
v 0.620 0.340 0.890
v 0.620 0.340 1.510
v 0.900 0.000 0.890
v 0.900 0.000 1.510
v 0.900 0.340 1.510
v 0.900 0.340 0.890
v -0.620 0.340 -1.510
v -0.620 0.340 -0.890
v -0.900 0.340 -0.890
v -0.900 0.340 -1.510
v -0.620 0.000 -0.890
v -0.900 0.000 -0.890
v -0.900 0.340 -0.890
v -0.620 0.340 -0.890
v -0.900 0.000 -1.510
v -0.620 0.000 -1.510
v -0.620 0.340 -1.510
v -0.900 0.340 -1.510
v -0.900 0.000 -0.890
v -0.900 0.000 -1.510
v -0.900 0.340 -1.510
v -0.900 0.340 -0.890
v -0.620 0.000 -1.510
v -0.620 0.000 -0.890
v -0.620 0.340 -0.890
v -0.620 0.340 -1.510
v 0.900 0.340 -1.510
v 0.900 0.340 -0.890
v 0.620 0.340 -0.890
v 0.620 0.340 -1.510
v 0.900 0.000 -0.890
v 0.620 0.000 -0.890
v 0.620 0.340 -0.890
v 0.900 0.340 -0.890
v 0.620 0.000 -1.510
v 0.900 0.000 -1.510
v 0.900 0.340 -1.510
v 0.620 0.340 -1.510
v 0.620 0.000 -0.890
v 0.620 0.000 -1.510
v 0.620 0.340 -1.510
v 0.620 0.340 -0.890
v 0.900 0.000 -1.510
v 0.900 0.000 -0.890
v 0.900 0.340 -0.890
v 0.900 0.340 -1.510
usemtl body
f 4 3 2 1
f 8 7 6 5
f 12 11 10 9
f 16 15 14 13
f 20 19 18 17
f 24 23 22 21
usemtl glass
f 28 27 26 25
f 32 31 30 29
f 36 35 34 33
f 40 39 38 37
usemtl tire
f 44 43 42 41
f 48 47 46 45
f 52 51 50 49
f 56 55 54 53
f 60 59 58 57
f 64 63 62 61
f 68 67 66 65
f 72 71 70 69
f 76 75 74 73
f 80 79 78 77
f 84 83 82 81
f 88 87 86 85
f 92 91 90 89
f 96 95 94 93
f 100 99 98 97
f 104 103 102 101
f 108 107 106 105
f 112 111 110 109
f 116 115 114 113
f 120 119 118 117
